<svg width="414" height="86" viewBox="0 0 414 86" fill="none" xmlns="http://www.w3.org/2000/svg">
<path d="M107.783 1C125.134 1 140.648 10.7588 147.698 25.6629L148.507 27.3741L132.172 42.9863L148.507 58.5985L147.698 60.3097C140.648 75.2127 125.134 84.9713 107.783 84.9713C95.7815 84.9713 84.8967 80.3421 76.9795 72.8381C68.9188 80.3417 57.8305 84.9713 45.6091 84.9713H1V42.985C1 20.1885 20.2746 1.69629 44.2472 1.01921L45.6091 1C57.8304 1 68.9187 5.6296 76.9835 13.1366C84.8968 5.62946 95.7816 1 107.783 1ZM107.783 6.24821C97.1664 6.24821 87.562 10.3339 80.5946 16.9384C86.6227 24.0934 90.2195 33.1377 90.2195 42.985C90.2195 52.8352 86.621 61.8817 80.5999 69.0348C87.5667 75.6397 97.1689 79.7231 107.783 79.7231C122.445 79.7231 135.585 71.8587 142.107 59.7412L124.576 42.9863L142.107 26.2313C135.585 14.1128 122.446 6.24821 107.783 6.24821ZM45.6091 6.24821C23.8343 6.24821 6.24821 22.7353 6.24821 42.985V79.7231H45.6091C56.4677 79.7231 66.2848 75.6232 73.3989 69.0012C67.4999 61.8506 63.9785 52.8171 63.9785 42.9863C63.9785 33.1554 67.5 24.1216 73.3955 16.9727C66.57 10.6137 57.2507 6.58113 46.9105 6.26789L45.6091 6.24821ZM77.0214 20.8472L76.9471 20.9304C72.0983 27.0762 69.2267 34.7157 69.2267 42.9863C69.2267 51.2924 72.1231 58.9619 77.0098 65.121C82.0133 58.9623 84.9713 51.2901 84.9713 42.985C84.9713 34.6804 82.0132 27.0085 77.0214 20.8472Z" fill="#79BBFF" stroke="#79BBFF" stroke-width="0.595747"/>
<path d="M163.875 1.5188H180.266C189.861 1.5188 196.059 6.53038 196.059 14.9709V15.084C196.022 24.2405 189.115 28.9883 179.706 28.9883H174.404V39.9912H163.875V1.5188ZM179.482 20.6608C183.178 20.6608 185.53 18.626 185.53 15.6115V15.4985C185.53 12.2202 183.178 10.4869 179.444 10.4869H174.404V20.6608H179.482Z" fill="black"/>
<path d="M207.186 1.25537H217.379L233.621 39.9915H222.308L219.582 33.0582H204.796L202.071 39.9915H191.019L207.186 1.25537ZM216.446 24.7684L212.189 13.8785L207.895 24.7684H216.446Z" fill="black"/>
<path d="M234.629 1.51953H252.663C258.487 1.51953 262.52 3.06446 265.059 5.62677C267.299 7.88763 268.419 10.7891 268.419 14.5949V14.7079C268.419 20.6238 265.32 24.5427 260.578 26.5774L269.689 39.9919H257.554L249.862 28.3485H245.195V39.9919H234.629V1.51953ZM252.215 19.9833C255.762 19.9833 257.89 18.2122 257.89 15.4238V15.3108C257.89 12.221 255.65 10.7137 252.177 10.7137H245.195V19.9833H252.215Z" fill="black"/>
<path d="M280.404 10.8644H269.016V1.51953H302.396V10.8644H290.971V39.9919H280.404V10.8644Z" fill="black"/>
<path d="M304.375 1.51953H314.232L329.913 21.8673V1.51953H340.368V39.9919H331.183L314.866 18.8905V39.9919H304.412V1.51953H304.375Z" fill="black"/>
<path d="M344.438 1.51953H375.091V10.5253H354.892V16.4036H373.187V24.8064H354.892V30.9108H375.353V39.9919H344.438V1.51953Z" fill="black"/>
<path d="M378.153 1.51953H396.187C402.011 1.51953 406.044 3.06446 408.583 5.62677C410.823 7.88763 411.943 10.7891 411.943 14.5949V14.7079C411.943 20.6238 408.844 24.5427 404.102 26.5774L413.212 39.9919H401.078L393.386 28.3485H388.719V39.9919H378.153V1.51953ZM395.739 19.9833C399.286 19.9833 401.414 18.2122 401.414 15.4238V15.3108C401.414 12.221 399.174 10.7137 395.701 10.7137H388.719V19.9833H395.739Z" fill="black"/>
<path d="M162.605 66.1051V65.9921C162.605 54.8008 171.081 45.9834 182.655 45.9834C190.459 45.9834 195.462 49.2617 198.822 53.9341L190.869 60.1515C188.704 57.4761 186.202 55.6298 182.543 55.6298C177.204 55.6298 173.433 60.2268 173.433 65.8413V65.9544C173.433 71.7196 177.204 76.2413 182.543 76.2413C186.501 76.2413 188.853 74.3573 191.131 71.5688L199.084 77.2964C195.499 82.308 190.645 85.963 182.245 85.963C171.379 85.963 162.605 77.5601 162.605 66.1051Z" fill="#79BBFF"/>
<path d="M198.635 66.1046V65.9916C198.635 54.951 207.447 45.9829 219.208 45.9829C230.969 45.9829 239.669 54.838 239.669 65.8785V65.9916C239.669 77.0321 230.857 86.0002 219.096 86.0002C207.335 86.0002 198.635 77.1452 198.635 66.1046ZM228.879 66.1046V65.9916C228.879 60.3771 224.958 55.5916 219.134 55.5916C213.309 55.5916 209.426 60.3017 209.426 65.8785V65.9916C209.426 71.5307 213.384 76.3915 219.208 76.3915C224.996 76.3539 228.879 71.6437 228.879 66.1046Z" fill="#79BBFF"/>
<path d="M242.432 46.7363H253.596L262.706 61.6204L271.816 46.7363H282.98V85.2087H272.489V63.1276L262.744 78.2H262.52L252.812 63.203V85.2464H242.469V46.7363H242.432Z" fill="#79BBFF"/>
<path d="M287.013 46.7363H298.177L307.287 61.6204L316.397 46.7363H327.561V85.2087H317.069V63.1276L307.324 78.2H307.1L297.392 63.203V85.2464H287.05V46.7363H287.013Z" fill="#79BBFF"/>
</svg>
